<svg width="36" height="28" viewBox="0 0 36 28" fill="none" xmlns="http://www.w3.org/2000/svg">
<path d="M13.5045 8.375C13.5045 9.27011 13.1489 10.1286 12.516 10.7615C11.8831 11.3944 11.0246 11.75 10.1295 11.75C9.23441 11.75 8.37597 11.3944 7.74303 10.7615C7.1101 10.1286 6.75452 9.27011 6.75452 8.375C6.75452 7.47989 7.1101 6.62145 7.74303 5.98851C8.37597 5.35558 9.23441 5 10.1295 5C11.0246 5 11.8831 5.35558 12.516 5.98851C13.1489 6.62145 13.5045 7.47989 13.5045 8.375Z" fill="#D7E5FF"/>
<path d="M3.375 0.5C2.47989 0.5 1.62145 0.855579 0.988515 1.48851C0.355579 2.12145 0 2.97989 0 3.875L0 24.125C0 25.0201 0.355579 25.8786 0.988515 26.5115C1.62145 27.1444 2.47989 27.5 3.375 27.5H32.625C33.5201 27.5 34.3786 27.1444 35.0115 26.5115C35.6444 25.8786 36 25.0201 36 24.125V3.875C36 2.97989 35.6444 2.12145 35.0115 1.48851C34.3786 0.855579 33.5201 0.5 32.625 0.5H3.375ZM32.625 2.75C32.9234 2.75 33.2095 2.86853 33.4205 3.0795C33.6315 3.29048 33.75 3.57663 33.75 3.875V17.375L25.2563 12.9943C25.0453 12.8886 24.8064 12.8519 24.5734 12.8894C24.3404 12.927 24.1251 13.0369 23.958 13.2035L15.6105 21.551L9.6255 17.564C9.40941 17.4201 9.15021 17.3554 8.89186 17.3809C8.63351 17.4063 8.3919 17.5203 8.208 17.7035L2.2545 23V24.215C2.25181 24.1851 2.25031 24.155 2.25 24.125V3.875C2.25 3.57663 2.36853 3.29048 2.5795 3.0795C2.79048 2.86853 3.07663 2.75 3.375 2.75H32.625Z" fill="#D7E5FF"/>
</svg>
