<svg width="13" height="12" viewBox="0 0 13 12" fill="none" xmlns="http://www.w3.org/2000/svg">
<path d="M5.44604 1.80688H1.44604C1.1699 1.80688 0.946045 2.03074 0.946045 2.30688C0.946045 2.58303 1.1699 2.80688 1.44604 2.80688H5.44604C5.72219 2.80688 5.94604 2.58303 5.94604 2.30688C5.94604 2.03074 5.72219 1.80688 5.44604 1.80688V1.80688Z" fill="#323D47"/>
<path fill-rule="evenodd" clip-rule="evenodd" d="M2.71938 6.73351H1.44604C1.1699 6.73351 0.946045 6.50965 0.946045 6.23351C0.946045 5.95737 1.1699 5.73351 1.44604 5.73351H2.71938C2.9626 5.05247 3.6606 4.64524 4.37316 4.76865C5.08572 4.89207 5.60611 5.51034 5.60611 6.23351C5.60611 6.95668 5.08572 7.57495 4.37316 7.69837C3.6606 7.82179 2.9626 7.41455 2.71938 6.73351ZM4.11271 6.72018C4.38149 6.72018 4.59938 6.50229 4.59938 6.23351C4.59938 5.96473 4.38149 5.74684 4.11271 5.74684C3.98364 5.74684 3.85986 5.79812 3.76859 5.88939C3.67732 5.98065 3.62605 6.10444 3.62605 6.23351C3.62605 6.50229 3.84393 6.72018 4.11271 6.72018Z" fill="#323D47"/>
<path fill-rule="evenodd" clip-rule="evenodd" d="M9.25936 2.7802C9.03163 3.31812 8.50999 3.67283 7.92602 3.68686V3.6402C7.15294 3.64316 6.50661 3.05312 6.43931 2.28297C6.37201 1.51281 6.9062 0.81961 7.66807 0.688432C8.42995 0.557253 9.16521 1.03189 9.35936 1.7802C9.38812 1.77642 9.41726 1.77642 9.44602 1.7802H12.0794C12.3555 1.7802 12.5794 2.00405 12.5794 2.2802C12.5794 2.55634 12.3555 2.7802 12.0794 2.7802H9.41269C9.36177 2.78654 9.31027 2.78654 9.25936 2.7802ZM8.41514 2.15151C8.40332 1.89041 8.18738 1.68528 7.92602 1.68686V1.71353C7.79212 1.71505 7.66476 1.77167 7.57394 1.87007C7.48311 1.96846 7.43684 2.09994 7.44602 2.23353C7.47825 2.4929 7.70959 2.6805 7.97002 2.65845C8.23045 2.63641 8.42696 2.4126 8.41514 2.15151Z" fill="#323D47"/>
<path d="M5.44595 9.87354H1.44595C1.16244 9.87354 0.932617 10.1034 0.932617 10.3869C0.932617 10.6704 1.16244 10.9002 1.44595 10.9002H5.44595C5.72209 10.9002 5.94595 10.6763 5.94595 10.4002C5.94595 10.1241 5.72209 9.9002 5.44595 9.9002V9.87354Z" fill="#323D47"/>
<path fill-rule="evenodd" clip-rule="evenodd" d="M9.53262 9.87353H12.1126V9.9002C12.3888 9.9002 12.6126 10.1241 12.6126 10.4002C12.6126 10.6763 12.3888 10.9002 12.1126 10.9002H9.44596C9.14097 11.5485 8.41544 11.8852 7.72345 11.6997C7.03147 11.5141 6.57174 10.8596 6.632 10.1457C6.69227 9.43177 7.25521 8.86355 7.96851 8.79663C8.68181 8.72971 9.34063 9.18331 9.53262 9.87353ZM7.65828 10.4578C7.73572 10.6394 7.91521 10.7562 8.11263 10.7535C8.3788 10.7499 8.59266 10.5331 8.59263 10.2669C8.59261 10.0694 8.47331 9.89156 8.29063 9.81664C8.10796 9.74172 7.89812 9.7846 7.75947 9.92517C7.62083 10.0657 7.58085 10.2761 7.65828 10.4578Z" fill="#323D47"/>
<path d="M12.1126 5.73352H6.7793C6.50315 5.73352 6.2793 5.95738 6.2793 6.23352C6.2793 6.50966 6.50315 6.73352 6.7793 6.73352H12.1126C12.3888 6.73352 12.6126 6.50966 12.6126 6.23352C12.6126 5.95738 12.3888 5.73352 12.1126 5.73352Z" fill="#323D47"/>
</svg>