<svg width="20" height="18" viewBox="0 0 20 18" fill="none" xmlns="http://www.w3.org/2000/svg">
<path d="M15.0625 7.3125C15.0625 5.96984 14.5291 4.68217 13.5797 3.73277C12.6303 2.78337 11.3427 2.25 10 2.25C8.65734 2.25 7.36967 2.78337 6.42027 3.73277C5.47087 4.68217 4.9375 5.96984 4.9375 7.3125C4.9375 9.38925 6.59912 12.096 10 15.3383C13.4009 12.096 15.0625 9.38925 15.0625 7.3125ZM10 16.875C5.87462 13.1254 3.8125 9.93713 3.8125 7.3125C3.8125 5.67147 4.4644 4.09766 5.62478 2.93728C6.78516 1.7769 8.35897 1.125 10 1.125C11.641 1.125 13.2148 1.7769 14.3752 2.93728C15.5356 4.09766 16.1875 5.67147 16.1875 7.3125C16.1875 9.93713 14.1254 13.1254 10 16.875Z" fill="#949494"/>
<path d="M10 7.875C10.2984 7.875 10.5845 7.75647 10.7955 7.5455C11.0065 7.33452 11.125 7.04837 11.125 6.75C11.125 6.45163 11.0065 6.16548 10.7955 5.95451C10.5845 5.74353 10.2984 5.625 10 5.625C9.70163 5.625 9.41548 5.74353 9.2045 5.95451C8.99353 6.16548 8.875 6.45163 8.875 6.75C8.875 7.04837 8.99353 7.33452 9.2045 7.5455C9.41548 7.75647 9.70163 7.875 10 7.875ZM10 9C9.40326 9 8.83097 8.76295 8.40901 8.34099C7.98705 7.91903 7.75 7.34674 7.75 6.75C7.75 6.15326 7.98705 5.58097 8.40901 5.15901C8.83097 4.73705 9.40326 4.5 10 4.5C10.5967 4.5 11.169 4.73705 11.591 5.15901C12.0129 5.58097 12.25 6.15326 12.25 6.75C12.25 7.34674 12.0129 7.91903 11.591 8.34099C11.169 8.76295 10.5967 9 10 9ZM16.075 12.375L17.875 16.875H12.8125V15.75H7.1875V16.875H2.125L3.925 12.375H16.075ZM14.8634 12.375H5.13663L3.78663 15.75H16.2134L14.8634 12.375Z" fill="#949494"/>
</svg>