<svg width="26" height="25" viewBox="0 0 26 25" fill="none" xmlns="http://www.w3.org/2000/svg">
<path d="M13.0005 0.686523C11.3956 0.686523 10.1683 1.89548 10.1683 3.47642V9.05621C10.1683 10.6372 11.3956 11.8461 13.0005 11.8461H18.6648L22.4411 15.566V11.8461C24.046 11.8461 25.2732 10.6372 25.2732 9.05621V3.47642C25.2732 1.89548 24.046 0.686523 22.4411 0.686523H13.0005ZM16.9542 3.47642H18.5761L20.1697 9.05621H18.7536L18.3694 7.66126H16.9533L16.6002 9.05621H15.3607L16.9542 3.47642ZM17.7208 4.40639C17.6264 4.77837 17.5207 5.2322 17.4253 5.51118L17.161 6.7313H18.2816L18.0153 5.51025C17.8275 5.23219 17.7208 4.77837 17.7208 4.40639ZM3.55995 9.98618C1.95506 9.98618 0.727783 11.1951 0.727783 12.7761V18.3559C0.727783 19.9368 1.95506 21.1458 3.55995 21.1458V24.8656L7.33617 21.1458H13.0005C14.6054 21.1458 15.8327 19.9368 15.8327 18.3559V12.7761H13.0005C11.2068 12.7761 9.78506 11.5671 9.31303 9.98618H3.55995ZM7.89694 12.6887C9.50184 12.6887 10.2571 13.9906 10.2571 15.4786C10.2571 16.7805 9.80299 17.6063 9.04775 17.9783C9.42537 18.1643 9.87285 18.2629 10.3449 18.3559L9.9918 19.2858C9.33096 19.0998 8.64558 18.8097 7.98474 18.5298C7.89034 18.4368 7.72513 18.4433 7.63072 18.4433C6.49785 18.3503 5.44806 17.4259 5.44806 15.566C5.44806 13.985 6.38645 12.6887 7.89694 12.6887ZM7.89694 13.706C7.1417 13.706 6.77541 14.543 6.77541 15.566C6.77541 16.6819 7.1417 17.4259 7.89694 17.4259C8.65219 17.4259 9.0468 16.5889 9.0468 15.566C9.0468 14.543 8.65219 13.706 7.89694 13.706Z" fill="#E5F6EC"/>
</svg>
